# Blender v2.92.0 OBJ File: ''
# www.blender.org
mtllib manzanaBonita.mtl
o Apple_Circle
v -0.025624 0.016113 0.056645
v -0.035712 0.049889 0.078932
v -0.086196 0.049889 0.008541
v -0.061851 0.016113 0.006134
v -0.036220 0.016113 -0.050495
v -0.050477 0.049889 -0.070374
v 0.035724 0.049889 -0.078899
v 0.025637 0.016113 -0.056612
v 0.086208 0.049889 -0.008509
v 0.061863 0.016113 -0.006101
v 0.036233 0.016113 0.050527
v 0.050490 0.049889 0.070407
v 0.037141 0.082638 -0.082028
v 0.089626 0.082638 -0.008847
v 0.052492 0.082638 0.073198
v -0.037128 0.082638 0.082060
v -0.089613 0.082638 0.008879
v -0.052479 0.082638 -0.073165
v 0.080751 0.120339 -0.007969
v 0.047294 0.120339 0.065950
v -0.033451 0.120339 0.073936
v -0.080738 0.120339 0.008001
v -0.047281 0.120339 -0.065918
v 0.033463 0.120339 -0.073903
v 0.021729 0.145592 -0.047979
v 0.052432 0.145592 -0.005168
v 0.030709 0.145592 0.042826
v -0.021717 0.145592 0.048011
v -0.052420 0.145592 0.005201
v -0.030697 0.145592 -0.042794
v 0.031054 0.151206 -0.003054
v 0.018189 0.151206 0.025369
v -0.012859 0.151206 0.028440
v -0.031042 0.151206 0.003087
v -0.018177 0.151206 -0.025337
v 0.012871 0.151206 -0.028407
v 0.012089 0.000001 -0.026679
v -0.017071 0.000001 -0.023795
v 0.029166 0.000001 -0.002867
v -0.012076 0.000001 0.026711
v 0.017084 0.000001 0.023827
v -0.029154 0.000001 0.002900
v -0.010322 0.145220 0.001038
v -0.006042 0.145220 -0.008417
v 0.010334 0.145220 -0.001005
v 0.006055 0.145220 0.008450
v -0.004273 0.145220 0.009471
v 0.004286 0.145220 -0.009439
v 0.001257 0.172264 -0.010629
v -0.001275 0.171735 -0.004072
v -0.008062 0.170136 -0.003033
v -0.012316 0.169067 -0.008551
v -0.009783 0.169597 -0.015109
v -0.002996 0.171195 -0.016147
v -0.001240 0.201225 -0.030197
v 0.004220 0.201012 -0.022156
v -0.000013 0.201020 -0.013404
v -0.009707 0.201241 -0.012692
v -0.015167 0.201454 -0.020734
v -0.010934 0.201446 -0.029486
v 0.000006 0.001311 0.000016
v -0.005474 0.201233 -0.021445
vt 0.293492 0.725310
vt 0.293176 0.727986
vt 0.300096 0.723971
vt 0.298933 0.722154
vt 0.287095 0.713892
vt 0.284181 0.712513
vt 0.284181 0.725300
vt 0.287095 0.723947
vt 0.284539 0.731760
vt 0.287376 0.729027
vt 0.275544 0.713900
vt 0.273035 0.712509
vt 0.273035 0.725296
vt 0.275544 0.723955
vt 0.287376 0.708916
vt 0.284539 0.706186
vt 0.290375 0.708774
vt 0.289212 0.706957
vt 0.287734 0.719478
vt 0.289212 0.718621
vt 0.281415 0.725553
vt 0.281788 0.732269
vt 0.270387 0.712246
vt 0.270387 0.725540
vt 0.281788 0.705681
vt 0.281415 0.712259
vt 0.271754 0.706195
vt 0.269056 0.705681
vt 0.269056 0.732269
vt 0.271754 0.731769
vt 0.265950 0.706989
vt 0.267149 0.712904
vt 0.267149 0.724881
vt 0.265950 0.730944
vt 0.278285 0.712926
vt 0.278285 0.724903
vt 0.278621 0.730955
vt 0.278621 0.706999
vt 0.276281 0.722826
vt 0.276499 0.726755
vt 0.264648 0.715025
vt 0.264648 0.722801
vt 0.276499 0.711201
vt 0.276281 0.715049
vt 0.263869 0.711184
vt 0.263869 0.726738
vt 0.263407 0.714354
vt 0.263868 0.716629
vt 0.263868 0.721234
vt 0.263407 0.723566
vt 0.275899 0.716652
vt 0.275899 0.721257
vt 0.276028 0.723584
vt 0.276028 0.714373
vt 0.295817 0.705618
vt 0.295154 0.711228
vt 0.296995 0.714106
vt 0.300096 0.712307
vt 0.292813 0.712586
vt 0.294154 0.719700
vt 0.292313 0.716822
vt 0.296495 0.718342
vt 0.267326 0.732806
vt 0.266833 0.735878
vt 0.266986 0.736635
vt 0.267787 0.735080
vt 0.268355 0.732806
vt 0.267852 0.735880
vt 0.267809 0.736638
vt 0.268226 0.735085
vt 0.268226 0.739690
vt 0.267809 0.738170
vt 0.267852 0.738944
vt 0.268355 0.742017
vt 0.266986 0.738167
vt 0.267787 0.739686
vt 0.266833 0.738942
vt 0.267326 0.742017
vt 0.144173 0.893018
vt 0.145969 0.906454
vt 0.146816 0.905690
vt 0.145549 0.892282
vt 0.148292 0.892505
vt 0.148647 0.905077
vt 0.149632 0.905228
vt 0.149657 0.893463
vt 0.153943 0.918899
vt 0.154443 0.907363
vt 0.152612 0.906768
vt 0.151201 0.919133
vt 0.151618 0.906513
vt 0.149822 0.919488
vt 0.155306 0.919020
vt 0.155281 0.907702
vt 0.151408 0.892576
vt 0.150177 0.893005
vt 0.145874 0.919800
vt 0.148438 0.920132
vt 0.155306 0.892349
vt 0.153973 0.892248
vt 0.144528 0.920469
vt 0.149657 0.921133
vt 0.294654 0.715464
vt 0.145747 0.921470
vt 0.147093 0.920801
vt 0.148312 0.921801
vn -0.6884 -0.5314 0.4937
vn -0.0834 -0.5314 -0.8430
vn 0.6884 -0.5314 -0.4937
vn 0.0834 -0.5314 0.8430
vn -0.7718 -0.5314 -0.3493
vn 0.7718 -0.5314 0.3493
vn 0.8093 -0.0905 -0.5804
vn 0.0980 -0.0904 0.9911
vn -0.9073 -0.0904 -0.4107
vn 0.9073 -0.0905 0.4106
vn -0.8093 -0.0904 0.5804
vn -0.0980 -0.0905 -0.9911
vn 0.8925 0.2007 0.4040
vn -0.7961 0.2007 0.5709
vn -0.0964 0.2007 -0.9749
vn 0.7961 0.2007 -0.5709
vn 0.0964 0.2007 0.9749
vn -0.8925 0.2007 -0.4040
vn 0.5816 0.6984 -0.4171
vn 0.0704 0.6984 0.7122
vn -0.6520 0.6984 -0.2951
vn 0.6520 0.6984 0.2951
vn -0.5816 0.6984 0.4171
vn -0.0704 0.6984 -0.7122
vn 0.2632 0.9574 0.1191
vn -0.2348 0.9574 0.1684
vn -0.0284 0.9574 -0.2875
vn 0.2348 0.9574 -0.1684
vn 0.0284 0.9574 0.2875
vn -0.2632 0.9574 -0.1191
vn -0.0485 -0.8702 -0.4903
vn 0.4004 -0.8702 -0.2872
vn 0.0485 -0.8702 0.4903
vn -0.4489 -0.8702 -0.2032
vn 0.4489 -0.8702 0.2032
vn -0.4004 -0.8702 0.2872
vn 0.2870 0.9491 0.1299
vn -0.2870 0.9491 -0.1299
vn 0.2560 0.9491 -0.1836
vn 0.0310 0.9491 0.3135
vn -0.2560 0.9491 0.1836
vn -0.0310 0.9491 -0.3135
vn 0.8351 0.4083 0.3687
vn -0.7992 0.1668 0.5774
vn -0.0896 -0.2744 -0.9574
vn 0.8005 0.0634 -0.5959
vn 0.0655 0.4480 0.8916
vn -0.8912 -0.2366 -0.3870
vn 0.7845 -0.2993 -0.5431
vn 0.0760 0.2996 0.9510
vn -0.8892 -0.2210 -0.4005
vn 0.9108 0.0793 0.4052
vn -0.8092 0.1391 0.5709
vn -0.0615 -0.4162 -0.9072
vn 0.0470 -0.9987 0.0213
vn -0.0470 -0.9987 -0.0213
vn 0.0419 -0.9987 -0.0300
vn 0.0051 -0.9987 0.0513
vn -0.0419 -0.9987 0.0300
vn -0.0051 -0.9987 -0.0513
vn 0.0236 0.9997 0.0105
usemtl Material.001
s 1
f 1/1/1 2/2/1 3/3/1 4/4/1
f 5/5/2 6/6/2 7/7/2 8/8/2
f 8/8/3 7/7/3 9/9/3 10/10/3
f 11/11/4 12/12/4 2/13/4 1/14/4
f 4/15/5 3/16/5 6/6/5 5/5/5
f 10/17/6 9/18/6 12/19/6 11/20/6
f 7/7/7 13/21/7 14/22/7 9/9/7
f 12/12/8 15/23/8 16/24/8 2/13/8
f 3/16/9 17/25/9 18/26/9 6/6/9
f 9/27/10 14/28/10 15/23/10 12/12/10
f 2/13/11 16/24/11 17/29/11 3/30/11
f 6/6/12 18/26/12 13/21/12 7/7/12
f 14/28/13 19/31/13 20/32/13 15/23/13
f 16/24/14 21/33/14 22/34/14 17/29/14
f 18/26/15 23/35/15 24/36/15 13/21/15
f 13/21/16 24/36/16 19/37/16 14/22/16
f 15/23/17 20/32/17 21/33/17 16/24/17
f 17/25/18 22/38/18 23/35/18 18/26/18
f 24/36/19 25/39/19 26/40/19 19/37/19
f 20/32/20 27/41/20 28/42/20 21/33/20
f 22/38/21 29/43/21 30/44/21 23/35/21
f 19/31/22 26/45/22 27/41/22 20/32/22
f 21/33/23 28/42/23 29/46/23 22/34/23
f 23/35/24 30/44/24 25/39/24 24/36/24
f 26/45/25 31/47/25 32/48/25 27/41/25
f 28/42/26 33/49/26 34/50/26 29/46/26
f 30/44/27 35/51/27 36/52/27 25/39/27
f 25/39/28 36/52/28 31/53/28 26/40/28
f 27/41/29 32/48/29 33/49/29 28/42/29
f 29/43/30 34/54/30 35/51/30 30/44/30
f 8/55/31 37/56/31 38/57/31 5/58/31
f 10/17/32 39/59/32 37/56/32 8/55/32
f 1/1/33 40/60/33 41/61/33 11/20/33
f 5/58/34 38/57/34 42/62/34 4/4/34
f 11/20/35 41/61/35 39/59/35 10/17/35
f 4/4/36 42/62/36 40/60/36 1/1/36
f 34/63/37 43/64/37 44/65/37 35/66/37
f 31/67/38 45/68/38 46/69/38 32/70/38
f 33/71/39 47/72/39 43/73/39 34/74/39
f 35/66/40 44/65/40 48/75/40 36/76/40
f 36/76/41 48/75/41 45/77/41 31/78/41
f 32/70/42 46/69/42 47/72/42 33/71/42
f 45/79/43 49/80/43 50/81/43 46/82/43
f 47/83/44 51/84/44 52/85/44 43/86/44
f 44/87/45 53/88/45 54/89/45 48/90/45
f 48/90/46 54/89/46 49/91/46 45/92/46
f 46/82/47 50/81/47 51/84/47 47/83/47
f 43/93/48 52/94/48 53/88/48 44/87/48
f 54/89/49 55/95/49 56/96/49 49/91/49
f 50/81/50 57/97/50 58/98/50 51/84/50
f 52/94/51 59/99/51 60/100/51 53/88/51
f 49/80/52 56/101/52 57/97/52 50/81/52
f 51/84/53 58/98/53 59/102/53 52/85/53
f 53/88/54 60/100/54 55/95/54 54/89/54
f 38/57/55 61/103/55 42/62/55
f 41/61/56 61/103/56 39/59/56
f 42/62/57 61/103/57 40/60/57
f 37/56/58 61/103/58 38/57/58
f 39/59/59 61/103/59 37/56/59
f 40/60/60 61/103/60 41/61/60
f 55/104/61 62/105/61 56/101/61
f 57/97/61 62/105/61 58/98/61
f 59/102/61 62/105/61 60/106/61
f 56/101/61 62/105/61 57/97/61
f 58/98/61 62/105/61 59/102/61
f 60/106/61 62/105/61 55/104/61
